<?xml version="1.0" encoding="us-ascii" standalone="no"?><svg xmlns="http://www.w3.org/2000/svg" xmlns:xlink="http://www.w3.org/1999/xlink" contentStyleType="text/css" height="952px" preserveAspectRatio="none" style="width:959px;height:952px;background:#FFFFFF;" version="1.1" viewBox="0 0 959 952" width="959px" zoomAndPan="magnify"><defs/><g><text fill="#000000" font-family="sans-serif" font-size="14" font-weight="bold" lengthAdjust="spacing" textLength="81" x="438.75" y="27.9951">DIAGRAM:</text><text fill="#000000" font-family="sans-serif" font-size="14" font-weight="bold" lengthAdjust="spacing" textLength="5" x="476.75" y="44.292">&#160;</text><text fill="#000000" font-family="sans-serif" font-size="14" font-weight="bold" lengthAdjust="spacing" textLength="245" x="356.75" y="60.5889">PROCESSING FILE ON DEMAND</text><text fill="#000000" font-family="sans-serif" font-size="14" font-weight="bold" lengthAdjust="spacing" textLength="5" x="476.75" y="76.8857">&#160;</text><text fill="#000000" font-family="sans-serif" font-size="14" font-weight="bold" lengthAdjust="spacing" textLength="5" x="476.75" y="93.1826">&#160;</text><rect fill="#A9DCDF" height="640.6563" style="stroke:#181818;stroke-width:1.0;" width="10" x="207.5" y="218.4063"/><rect fill="#A9DCDF" height="631.6563" style="stroke:#181818;stroke-width:1.0;" width="10" x="207.5" y="218.4063"/><rect fill="#A9DCDF" height="29.1328" style="stroke:#181818;stroke-width:1.0;" width="10" x="412.5" y="262.6719"/><rect fill="#A9DCDF" height="29.1328" style="stroke:#181818;stroke-width:1.0;" width="10" x="412.5" y="365.2031"/><rect fill="#A9DCDF" height="29.1328" style="stroke:#181818;stroke-width:1.0;" width="10" x="412.5" y="467.7344"/><rect fill="#A9DCDF" height="522.9922" style="stroke:#181818;stroke-width:1.0;" width="10" x="638.5" y="336.0703"/><rect fill="#A9DCDF" height="166.5313" style="stroke:#181818;stroke-width:1.0;" width="10" x="643.5" y="618.2656"/><line style="stroke:#181818;stroke-width:0.5;stroke-dasharray:5.0,5.0;" x1="26" x2="26" y1="187.2734" y2="868.0625"/><line style="stroke:#181818;stroke-width:0.5;stroke-dasharray:5.0,5.0;" x1="207" x2="207" y1="187.2734" y2="868.0625"/><line style="stroke:#181818;stroke-width:0.5;stroke-dasharray:5.0,5.0;" x1="417.5" x2="417.5" y1="187.2734" y2="868.0625"/><line style="stroke:#181818;stroke-width:0.5;stroke-dasharray:5.0,5.0;" x1="643" x2="643" y1="187.2734" y2="868.0625"/><text fill="#000000" font-family="Aapex" font-size="17" lengthAdjust="spacing" textLength="37" x="5" y="183.2642">user</text><ellipse cx="26.5" cy="115.9844" fill="#00FFFF" rx="8" ry="8" style="stroke:#00BFFF;stroke-width:0.5;"/><path d="M26.5,123.9844 L26.5,150.9844 M13.5,131.9844 L39.5,131.9844 M26.5,150.9844 L13.5,165.9844 M26.5,150.9844 L39.5,165.9844 " fill="none" style="stroke:#00BFFF;stroke-width:0.5;"/><text fill="#000000" font-family="Aapex" font-size="17" lengthAdjust="spacing" textLength="37" x="5" y="882.8423">user</text><ellipse cx="26.5" cy="895.3516" fill="#00FFFF" rx="8" ry="8" style="stroke:#00BFFF;stroke-width:0.5;"/><path d="M26.5,903.3516 L26.5,930.3516 M13.5,911.3516 L39.5,911.3516 M26.5,930.3516 L13.5,945.3516 M26.5,930.3516 L39.5,945.3516 " fill="none" style="stroke:#00BFFF;stroke-width:0.5;"/><rect fill="#1E90FF" height="33.7891" rx="2.5" ry="2.5" style="stroke:#00BFFF;stroke-width:0.5;" width="61" x="177" y="152.4844"/><text fill="#FFFFFF" font-family="Impact" font-size="17" lengthAdjust="spacing" textLength="47" x="184" y="175.2642">Index</text><rect fill="#1E90FF" height="33.7891" rx="2.5" ry="2.5" style="stroke:#00BFFF;stroke-width:0.5;" width="61" x="177" y="867.0625"/><text fill="#FFFFFF" font-family="Impact" font-size="17" lengthAdjust="spacing" textLength="47" x="184" y="889.8423">Index</text><rect fill="#1E90FF" height="33.7891" rx="2.5" ry="2.5" style="stroke:#00BFFF;stroke-width:0.5;" width="168" x="333.5" y="152.4844"/><text fill="#FFFFFF" font-family="Impact" font-size="17" lengthAdjust="spacing" textLength="154" x="340.5" y="175.2642">DatabaseManager</text><rect fill="#1E90FF" height="33.7891" rx="2.5" ry="2.5" style="stroke:#00BFFF;stroke-width:0.5;" width="168" x="333.5" y="867.0625"/><text fill="#FFFFFF" font-family="Impact" font-size="17" lengthAdjust="spacing" textLength="154" x="340.5" y="889.8423">DatabaseManager</text><rect fill="#1E90FF" height="33.7891" rx="2.5" ry="2.5" style="stroke:#00BFFF;stroke-width:0.5;" width="135" x="576" y="152.4844"/><text fill="#FFFFFF" font-family="Impact" font-size="17" lengthAdjust="spacing" textLength="121" x="583" y="175.2642">DataProcessor</text><rect fill="#1E90FF" height="33.7891" rx="2.5" ry="2.5" style="stroke:#00BFFF;stroke-width:0.5;" width="135" x="576" y="867.0625"/><text fill="#FFFFFF" font-family="Impact" font-size="17" lengthAdjust="spacing" textLength="121" x="583" y="889.8423">DataProcessor</text><rect fill="#A9DCDF" height="640.6563" style="stroke:#181818;stroke-width:1.0;" width="10" x="207.5" y="218.4063"/><rect fill="#A9DCDF" height="631.6563" style="stroke:#181818;stroke-width:1.0;" width="10" x="207.5" y="218.4063"/><rect fill="#A9DCDF" height="29.1328" style="stroke:#181818;stroke-width:1.0;" width="10" x="412.5" y="262.6719"/><rect fill="#A9DCDF" height="29.1328" style="stroke:#181818;stroke-width:1.0;" width="10" x="412.5" y="365.2031"/><rect fill="#A9DCDF" height="29.1328" style="stroke:#181818;stroke-width:1.0;" width="10" x="412.5" y="467.7344"/><rect fill="#A9DCDF" height="522.9922" style="stroke:#181818;stroke-width:1.0;" width="10" x="638.5" y="336.0703"/><rect fill="#A9DCDF" height="166.5313" style="stroke:#181818;stroke-width:1.0;" width="10" x="643.5" y="618.2656"/><polygon fill="#00BFFF" points="195.5,214.4063,205.5,218.4063,195.5,222.4063,199.5,218.4063" style="stroke:#00BFFF;stroke-width:1.0;"/><line style="stroke:#00BFFF;stroke-width:1.0;" x1="26.5" x2="201.5" y1="218.4063" y2="218.4063"/><text fill="#000000" font-family="sans-serif" font-size="13" lengthAdjust="spacing" textLength="85" x="33.5" y="213.3403">Start process</text><polygon fill="#00BFFF" points="400.5,258.6719,410.5,262.6719,400.5,266.6719,404.5,262.6719" style="stroke:#00BFFF;stroke-width:1.0;"/><line style="stroke:#00BFFF;stroke-width:1.0;" x1="217.5" x2="406.5" y1="262.6719" y2="262.6719"/><text fill="#000000" font-family="sans-serif" font-size="13" lengthAdjust="spacing" textLength="165" x="224.5" y="242.4731">Create DatabaseManager</text><text fill="#000000" font-family="sans-serif" font-size="13" lengthAdjust="spacing" textLength="94" x="224.5" y="257.606">(with settings)</text><polygon fill="#00BFFF" points="228.5,287.8047,218.5,291.8047,228.5,295.8047,224.5,291.8047" style="stroke:#00BFFF;stroke-width:1.0;"/><line style="stroke:#00BFFF;stroke-width:1.0;stroke-dasharray:2.0,2.0;" x1="222.5" x2="416.5" y1="291.8047" y2="291.8047"/><text fill="#000000" font-family="sans-serif" font-size="13" lengthAdjust="spacing" textLength="171" x="234.5" y="286.7388">DatabaseManager created</text><polygon fill="#00BFFF" points="626.5,332.0703,636.5,336.0703,626.5,340.0703,630.5,336.0703" style="stroke:#00BFFF;stroke-width:1.0;"/><line style="stroke:#00BFFF;stroke-width:1.0;" x1="217.5" x2="632.5" y1="336.0703" y2="336.0703"/><text fill="#000000" font-family="sans-serif" font-size="13" lengthAdjust="spacing" textLength="141" x="224.5" y="315.8716">Create DataProcessor</text><text fill="#000000" font-family="sans-serif" font-size="13" lengthAdjust="spacing" textLength="160" x="224.5" y="331.0044">(with DatabaseManager)</text><polygon fill="#00BFFF" points="433.5,361.2031,423.5,365.2031,433.5,369.2031,429.5,365.2031" style="stroke:#00BFFF;stroke-width:1.0;"/><line style="stroke:#00BFFF;stroke-width:1.0;" x1="427.5" x2="637.5" y1="365.2031" y2="365.2031"/><text fill="#000000" font-family="sans-serif" font-size="13" lengthAdjust="spacing" textLength="188" x="439.5" y="360.1372">Reference DatabaseManager</text><polygon fill="#00BFFF" points="626.5,390.3359,636.5,394.3359,626.5,398.3359,630.5,394.3359" style="stroke:#00BFFF;stroke-width:1.0;"/><line style="stroke:#00BFFF;stroke-width:1.0;stroke-dasharray:2.0,2.0;" x1="417.5" x2="632.5" y1="394.3359" y2="394.3359"/><text fill="#000000" font-family="sans-serif" font-size="13" lengthAdjust="spacing" textLength="192" x="424.5" y="389.27">DatabaseManager referenced</text><polygon fill="#00BFFF" points="626.5,434.6016,636.5,438.6016,626.5,442.6016,630.5,438.6016" style="stroke:#00BFFF;stroke-width:1.0;"/><line style="stroke:#00BFFF;stroke-width:1.0;" x1="217.5" x2="632.5" y1="438.6016" y2="438.6016"/><text fill="#000000" font-family="sans-serif" font-size="13" lengthAdjust="spacing" textLength="94" x="224.5" y="418.4028">Run bulkInsert</text><text fill="#000000" font-family="sans-serif" font-size="13" lengthAdjust="spacing" textLength="178" x="224.5" y="433.5356">(with file name, batch size)</text><polygon fill="#00BFFF" points="433.5,463.7344,423.5,467.7344,433.5,471.7344,429.5,467.7344" style="stroke:#00BFFF;stroke-width:1.0;"/><line style="stroke:#00BFFF;stroke-width:1.0;" x1="427.5" x2="637.5" y1="467.7344" y2="467.7344"/><text fill="#000000" font-family="sans-serif" font-size="13" lengthAdjust="spacing" textLength="134" x="439.5" y="462.6685">Connect to database</text><polygon fill="#00BFFF" points="626.5,492.8672,636.5,496.8672,626.5,500.8672,630.5,496.8672" style="stroke:#00BFFF;stroke-width:1.0;"/><line style="stroke:#00BFFF;stroke-width:1.0;stroke-dasharray:2.0,2.0;" x1="417.5" x2="632.5" y1="496.8672" y2="496.8672"/><text fill="#000000" font-family="sans-serif" font-size="13" lengthAdjust="spacing" textLength="145" x="424.5" y="491.8013">Connection successful</text><line style="stroke:#00BFFF;stroke-width:1.0;" x1="648.5" x2="690.5" y1="526" y2="526"/><line style="stroke:#00BFFF;stroke-width:1.0;" x1="690.5" x2="690.5" y1="526" y2="539"/><line style="stroke:#00BFFF;stroke-width:1.0;" x1="649.5" x2="690.5" y1="539" y2="539"/><polygon fill="#00BFFF" points="659.5,535,649.5,539,659.5,543,655.5,539" style="stroke:#00BFFF;stroke-width:1.0;"/><text fill="#000000" font-family="sans-serif" font-size="13" lengthAdjust="spacing" textLength="88" x="655.5" y="520.9341">Read CSV file</text><line style="stroke:#00BFFF;stroke-width:1.0;" x1="648.5" x2="690.5" y1="568.1328" y2="568.1328"/><line style="stroke:#00BFFF;stroke-width:1.0;" x1="690.5" x2="690.5" y1="568.1328" y2="581.1328"/><line style="stroke:#00BFFF;stroke-width:1.0;" x1="649.5" x2="690.5" y1="581.1328" y2="581.1328"/><polygon fill="#00BFFF" points="659.5,577.1328,649.5,581.1328,659.5,585.1328,655.5,581.1328" style="stroke:#00BFFF;stroke-width:1.0;"/><text fill="#000000" font-family="sans-serif" font-size="13" lengthAdjust="spacing" textLength="66" x="655.5" y="563.0669">Parse CSV</text><line style="stroke:#00BFFF;stroke-width:1.0;" x1="648.5" x2="695.5" y1="605.2656" y2="605.2656"/><line style="stroke:#00BFFF;stroke-width:1.0;" x1="695.5" x2="695.5" y1="605.2656" y2="618.2656"/><line style="stroke:#00BFFF;stroke-width:1.0;" x1="654.5" x2="695.5" y1="618.2656" y2="618.2656"/><polygon fill="#00BFFF" points="664.5,614.2656,654.5,618.2656,664.5,622.2656,660.5,618.2656" style="stroke:#00BFFF;stroke-width:1.0;"/><text fill="#000000" font-family="sans-serif" font-size="13" lengthAdjust="spacing" textLength="292" x="660.5" y="600.1997">Process and insert batches into the database</text><line style="stroke:#00BFFF;stroke-width:1.0;stroke-dasharray:2.0,2.0;" x1="653.5" x2="695.5" y1="652.3984" y2="652.3984"/><line style="stroke:#00BFFF;stroke-width:1.0;stroke-dasharray:2.0,2.0;" x1="695.5" x2="695.5" y1="652.3984" y2="665.3984"/><line style="stroke:#00BFFF;stroke-width:1.0;stroke-dasharray:2.0,2.0;" x1="654.5" x2="695.5" y1="665.3984" y2="665.3984"/><polygon fill="#00BFFF" points="664.5,661.3984,654.5,665.3984,664.5,669.3984,660.5,665.3984" style="stroke:#00BFFF;stroke-width:1.0;"/><text fill="#000000" font-family="sans-serif" font-size="13" lengthAdjust="spacing" textLength="227" x="660.5" y="647.3325">Inserting batch into the database...</text><line style="stroke:#00BFFF;stroke-width:1.0;stroke-dasharray:2.0,2.0;" x1="653.5" x2="695.5" y1="694.5313" y2="694.5313"/><line style="stroke:#00BFFF;stroke-width:1.0;stroke-dasharray:2.0,2.0;" x1="695.5" x2="695.5" y1="694.5313" y2="707.5313"/><line style="stroke:#00BFFF;stroke-width:1.0;stroke-dasharray:2.0,2.0;" x1="654.5" x2="695.5" y1="707.5313" y2="707.5313"/><polygon fill="#00BFFF" points="664.5,703.5313,654.5,707.5313,664.5,711.5313,660.5,707.5313" style="stroke:#00BFFF;stroke-width:1.0;"/><text fill="#000000" font-family="sans-serif" font-size="13" lengthAdjust="spacing" textLength="227" x="660.5" y="689.4653">Inserting batch into the database...</text><line style="stroke:#00BFFF;stroke-width:1.0;stroke-dasharray:2.0,2.0;" x1="653.5" x2="695.5" y1="736.6641" y2="736.6641"/><line style="stroke:#00BFFF;stroke-width:1.0;stroke-dasharray:2.0,2.0;" x1="695.5" x2="695.5" y1="736.6641" y2="749.6641"/><line style="stroke:#00BFFF;stroke-width:1.0;stroke-dasharray:2.0,2.0;" x1="654.5" x2="695.5" y1="749.6641" y2="749.6641"/><polygon fill="#00BFFF" points="664.5,745.6641,654.5,749.6641,664.5,753.6641,660.5,749.6641" style="stroke:#00BFFF;stroke-width:1.0;"/><text fill="#000000" font-family="sans-serif" font-size="13" lengthAdjust="spacing" textLength="227" x="660.5" y="731.5981">Inserting batch into the database...</text><line style="stroke:#00BFFF;stroke-width:1.0;stroke-dasharray:2.0,2.0;" x1="653.5" x2="695.5" y1="783.7969" y2="783.7969"/><line style="stroke:#00BFFF;stroke-width:1.0;stroke-dasharray:2.0,2.0;" x1="695.5" x2="695.5" y1="783.7969" y2="796.7969"/><line style="stroke:#00BFFF;stroke-width:1.0;stroke-dasharray:2.0,2.0;" x1="648.5" x2="695.5" y1="796.7969" y2="796.7969"/><polygon fill="#00BFFF" points="658.5,792.7969,648.5,796.7969,658.5,800.7969,654.5,796.7969" style="stroke:#00BFFF;stroke-width:1.0;"/><text fill="#000000" font-family="sans-serif" font-size="13" lengthAdjust="spacing" textLength="95" x="660.5" y="778.731">End of process</text><polygon fill="#00BFFF" points="228.5,816.9297,218.5,820.9297,228.5,824.9297,224.5,820.9297" style="stroke:#00BFFF;stroke-width:1.0;"/><line style="stroke:#00BFFF;stroke-width:1.0;stroke-dasharray:2.0,2.0;" x1="222.5" x2="637.5" y1="820.9297" y2="820.9297"/><text fill="#000000" font-family="sans-serif" font-size="13" lengthAdjust="spacing" textLength="114" x="234.5" y="815.8638">End of execution!</text><polygon fill="#00BFFF" points="37.5,846.0625,27.5,850.0625,37.5,854.0625,33.5,850.0625" style="stroke:#00BFFF;stroke-width:1.0;"/><line style="stroke:#00BFFF;stroke-width:1.0;stroke-dasharray:2.0,2.0;" x1="31.5" x2="201.5" y1="850.0625" y2="850.0625"/><text fill="#000000" font-family="sans-serif" font-size="13" lengthAdjust="spacing" textLength="152" x="43.5" y="844.9966">Show console message</text><!--SRC=[pLHDZzem4BtxLqpffQlTHUgfAeTA8O5L960HaNhYCZW3M0GxQpk5jkf_h_D14hAXrTusXyZsFBzvRpos5JOX60IXzxJovgErNClbwjcVH56uU89fE9l0ymA2oTnR17bmm9Wv29cYnYCOUib8SeBV3DpdQQrElagKXe0eZGu_nqb6POXRfSTAnwJx0JEnfPcGD4P-s6cLoRZ4VVI-1dumPGLeYTeABbAKzbzSRLY7Bb3nZdGVSggaNU2H83oco6rVE1A_23v_wGkLxAUziCHQXZlPyIN39jhiQncexFQ0nebZkmwq1TMBXGaFKpgpFunXlWoP8StIHZ8CGXdJUG1ee1XT1mEqk453SvJeobN0Wd4rUmrTQiN965K2wnbZULfu_5QckByVGMJTNaXBHAvD_41BbOJYdyFhL2FmDUM0Zg2r_7GITk_wpreXT-QkeMfarYDul4WOTOc05_mnYwc7eL5KUxfILAzUz7JOMxAQejIZZjCLRKaNbwd3ydzlBNLTV_h2-XQBgqp29aiEeNJdPo_cji8z5D8rrmDiq79NVTTzTpVz-4fAuXQiWhWIzIOdrNwX99YCvwlRBEatSIMXxOCm1Z_wNaY_YN8tsL0EkuqeXu0o1b7KfAm06JTr_koUUZps7larSLbWry5LHL-n3OV3zxbxuagXjlLDRXtBBTlL1QmsqfbubX_kXqi7EaZ-NBWtOgzEm9KqolNRqH6uCsudA1-Blm00]--></g></svg>