<?xml version="1.0" encoding="us-ascii" standalone="no"?><svg xmlns="http://www.w3.org/2000/svg" xmlns:xlink="http://www.w3.org/1999/xlink" contentStyleType="text/css" height="1018px" preserveAspectRatio="none" style="width:835px;height:1018px;background:#FFFFFF;" version="1.1" viewBox="0 0 835 1018" width="835px" zoomAndPan="magnify"><defs/><g><text fill="#000000" font-family="sans-serif" font-size="14" font-weight="bold" lengthAdjust="spacing" textLength="81" x="376.25" y="27.9951">DIAGRAM:</text><text fill="#000000" font-family="sans-serif" font-size="14" font-weight="bold" lengthAdjust="spacing" textLength="5" x="414.25" y="44.292">&#160;</text><text fill="#000000" font-family="sans-serif" font-size="14" font-weight="bold" lengthAdjust="spacing" textLength="245" x="294.25" y="60.5889">PROCESSING FILE ON DEMAND</text><text fill="#000000" font-family="sans-serif" font-size="14" font-weight="bold" lengthAdjust="spacing" textLength="5" x="414.25" y="76.8857">&#160;</text><text fill="#000000" font-family="sans-serif" font-size="14" font-weight="bold" lengthAdjust="spacing" textLength="5" x="414.25" y="93.1826">&#160;</text><rect fill="#A9DCDF" height="656.7891" style="stroke:#181818;stroke-width:1.0;" width="10" x="207.5" y="218.4063"/><rect fill="#A9DCDF" height="647.7891" style="stroke:#181818;stroke-width:1.0;" width="10" x="207.5" y="218.4063"/><rect fill="#A9DCDF" height="539.125" style="stroke:#181818;stroke-width:1.0;" width="10" x="419.5" y="336.0703"/><rect fill="#A9DCDF" height="190.6641" style="stroke:#181818;stroke-width:1.0;" width="10" x="424.5" y="610.2656"/><rect fill="#A9DCDF" height="29.1328" style="stroke:#181818;stroke-width:1.0;" width="10" x="740.5" y="262.6719"/><rect fill="#A9DCDF" height="29.1328" style="stroke:#181818;stroke-width:1.0;" width="10" x="740.5" y="365.2031"/><rect fill="#A9DCDF" height="29.1328" style="stroke:#181818;stroke-width:1.0;" width="10" x="740.5" y="467.7344"/><rect fill="#A9DCDF" height="155.5313" style="stroke:#181818;stroke-width:1.0;" width="10" x="740.5" y="610.2656"/><line style="stroke:#181818;stroke-width:0.5;stroke-dasharray:5.0,5.0;" x1="26" x2="26" y1="187.2734" y2="884.1953"/><line style="stroke:#181818;stroke-width:0.5;stroke-dasharray:5.0,5.0;" x1="207" x2="207" y1="187.2734" y2="884.1953"/><line style="stroke:#181818;stroke-width:0.5;stroke-dasharray:5.0,5.0;" x1="424" x2="424" y1="187.2734" y2="884.1953"/><line style="stroke:#181818;stroke-width:0.5;stroke-dasharray:5.0,5.0;" x1="745.5" x2="745.5" y1="187.2734" y2="884.1953"/><text fill="#000000" font-family="Aapex" font-size="17" lengthAdjust="spacing" textLength="37" x="5" y="183.2642">user</text><ellipse cx="26.5" cy="115.9844" fill="#00FFFF" rx="8" ry="8" style="stroke:#00BFFF;stroke-width:0.5;"/><path d="M26.5,123.9844 L26.5,150.9844 M13.5,131.9844 L39.5,131.9844 M26.5,150.9844 L13.5,165.9844 M26.5,150.9844 L39.5,165.9844 " fill="none" style="stroke:#00BFFF;stroke-width:0.5;"/><text fill="#000000" font-family="Aapex" font-size="17" lengthAdjust="spacing" textLength="37" x="5" y="898.9751">user</text><ellipse cx="26.5" cy="911.4844" fill="#00FFFF" rx="8" ry="8" style="stroke:#00BFFF;stroke-width:0.5;"/><path d="M26.5,919.4844 L26.5,946.4844 M13.5,927.4844 L39.5,927.4844 M26.5,946.4844 L13.5,961.4844 M26.5,946.4844 L39.5,961.4844 " fill="none" style="stroke:#00BFFF;stroke-width:0.5;"/><rect fill="#1E90FF" height="33.7891" rx="2.5" ry="2.5" style="stroke:#00BFFF;stroke-width:0.5;" width="61" x="177" y="152.4844"/><text fill="#FFFFFF" font-family="Impact" font-size="17" lengthAdjust="spacing" textLength="47" x="184" y="175.2642">Index</text><rect fill="#1E90FF" height="33.7891" rx="2.5" ry="2.5" style="stroke:#00BFFF;stroke-width:0.5;" width="61" x="177" y="883.1953"/><text fill="#FFFFFF" font-family="Impact" font-size="17" lengthAdjust="spacing" textLength="47" x="184" y="905.9751">Index</text><rect fill="#1E90FF" height="33.7891" rx="2.5" ry="2.5" style="stroke:#00BFFF;stroke-width:0.5;" width="135" x="357" y="152.4844"/><text fill="#FFFFFF" font-family="Impact" font-size="17" lengthAdjust="spacing" textLength="121" x="364" y="175.2642">DataProcessor</text><rect fill="#1E90FF" height="33.7891" rx="2.5" ry="2.5" style="stroke:#00BFFF;stroke-width:0.5;" width="135" x="357" y="883.1953"/><text fill="#FFFFFF" font-family="Impact" font-size="17" lengthAdjust="spacing" textLength="121" x="364" y="905.9751">DataProcessor</text><rect fill="#1E90FF" height="33.7891" rx="2.5" ry="2.5" style="stroke:#00BFFF;stroke-width:0.5;" width="168" x="661.5" y="152.4844"/><text fill="#FFFFFF" font-family="Impact" font-size="17" lengthAdjust="spacing" textLength="154" x="668.5" y="175.2642">DatabaseManager</text><rect fill="#1E90FF" height="33.7891" rx="2.5" ry="2.5" style="stroke:#00BFFF;stroke-width:0.5;" width="168" x="661.5" y="883.1953"/><text fill="#FFFFFF" font-family="Impact" font-size="17" lengthAdjust="spacing" textLength="154" x="668.5" y="905.9751">DatabaseManager</text><rect fill="#A9DCDF" height="656.7891" style="stroke:#181818;stroke-width:1.0;" width="10" x="207.5" y="218.4063"/><rect fill="#A9DCDF" height="647.7891" style="stroke:#181818;stroke-width:1.0;" width="10" x="207.5" y="218.4063"/><rect fill="#A9DCDF" height="539.125" style="stroke:#181818;stroke-width:1.0;" width="10" x="419.5" y="336.0703"/><rect fill="#A9DCDF" height="190.6641" style="stroke:#181818;stroke-width:1.0;" width="10" x="424.5" y="610.2656"/><rect fill="#A9DCDF" height="29.1328" style="stroke:#181818;stroke-width:1.0;" width="10" x="740.5" y="262.6719"/><rect fill="#A9DCDF" height="29.1328" style="stroke:#181818;stroke-width:1.0;" width="10" x="740.5" y="365.2031"/><rect fill="#A9DCDF" height="29.1328" style="stroke:#181818;stroke-width:1.0;" width="10" x="740.5" y="467.7344"/><rect fill="#A9DCDF" height="155.5313" style="stroke:#181818;stroke-width:1.0;" width="10" x="740.5" y="610.2656"/><polygon fill="#00BFFF" points="195.5,214.4063,205.5,218.4063,195.5,222.4063,199.5,218.4063" style="stroke:#00BFFF;stroke-width:1.0;"/><line style="stroke:#00BFFF;stroke-width:1.0;" x1="26.5" x2="201.5" y1="218.4063" y2="218.4063"/><text fill="#000000" font-family="sans-serif" font-size="13" lengthAdjust="spacing" textLength="85" x="33.5" y="213.3403">Start process</text><polygon fill="#00BFFF" points="728.5,258.6719,738.5,262.6719,728.5,266.6719,732.5,262.6719" style="stroke:#00BFFF;stroke-width:1.0;"/><line style="stroke:#00BFFF;stroke-width:1.0;" x1="217.5" x2="734.5" y1="262.6719" y2="262.6719"/><text fill="#000000" font-family="sans-serif" font-size="13" lengthAdjust="spacing" textLength="165" x="224.5" y="242.4731">Create DatabaseManager</text><text fill="#000000" font-family="sans-serif" font-size="13" lengthAdjust="spacing" textLength="94" x="224.5" y="257.606">(with settings)</text><polygon fill="#00BFFF" points="228.5,287.8047,218.5,291.8047,228.5,295.8047,224.5,291.8047" style="stroke:#00BFFF;stroke-width:1.0;"/><line style="stroke:#00BFFF;stroke-width:1.0;stroke-dasharray:2.0,2.0;" x1="222.5" x2="744.5" y1="291.8047" y2="291.8047"/><text fill="#000000" font-family="sans-serif" font-size="13" lengthAdjust="spacing" textLength="171" x="234.5" y="286.7388">DatabaseManager created</text><polygon fill="#00BFFF" points="407.5,332.0703,417.5,336.0703,407.5,340.0703,411.5,336.0703" style="stroke:#00BFFF;stroke-width:1.0;"/><line style="stroke:#00BFFF;stroke-width:1.0;" x1="217.5" x2="413.5" y1="336.0703" y2="336.0703"/><text fill="#000000" font-family="sans-serif" font-size="13" lengthAdjust="spacing" textLength="141" x="224.5" y="315.8716">Create DataProcessor</text><text fill="#000000" font-family="sans-serif" font-size="13" lengthAdjust="spacing" textLength="160" x="224.5" y="331.0044">(with DatabaseManager)</text><polygon fill="#00BFFF" points="728.5,361.2031,738.5,365.2031,728.5,369.2031,732.5,365.2031" style="stroke:#00BFFF;stroke-width:1.0;"/><line style="stroke:#00BFFF;stroke-width:1.0;" x1="429.5" x2="734.5" y1="365.2031" y2="365.2031"/><text fill="#000000" font-family="sans-serif" font-size="13" lengthAdjust="spacing" textLength="188" x="436.5" y="360.1372">Reference DatabaseManager</text><polygon fill="#00BFFF" points="440.5,390.3359,430.5,394.3359,440.5,398.3359,436.5,394.3359" style="stroke:#00BFFF;stroke-width:1.0;"/><line style="stroke:#00BFFF;stroke-width:1.0;stroke-dasharray:2.0,2.0;" x1="434.5" x2="744.5" y1="394.3359" y2="394.3359"/><text fill="#000000" font-family="sans-serif" font-size="13" lengthAdjust="spacing" textLength="192" x="446.5" y="389.27">DatabaseManager referenced</text><polygon fill="#00BFFF" points="407.5,434.6016,417.5,438.6016,407.5,442.6016,411.5,438.6016" style="stroke:#00BFFF;stroke-width:1.0;"/><line style="stroke:#00BFFF;stroke-width:1.0;" x1="217.5" x2="413.5" y1="438.6016" y2="438.6016"/><text fill="#000000" font-family="sans-serif" font-size="13" lengthAdjust="spacing" textLength="94" x="224.5" y="418.4028">Run bulkInsert</text><text fill="#000000" font-family="sans-serif" font-size="13" lengthAdjust="spacing" textLength="178" x="224.5" y="433.5356">(with file name, batch size)</text><polygon fill="#00BFFF" points="728.5,463.7344,738.5,467.7344,728.5,471.7344,732.5,467.7344" style="stroke:#00BFFF;stroke-width:1.0;"/><line style="stroke:#00BFFF;stroke-width:1.0;" x1="429.5" x2="734.5" y1="467.7344" y2="467.7344"/><text fill="#000000" font-family="sans-serif" font-size="13" lengthAdjust="spacing" textLength="134" x="436.5" y="462.6685">Connect to database</text><polygon fill="#00BFFF" points="440.5,492.8672,430.5,496.8672,440.5,500.8672,436.5,496.8672" style="stroke:#00BFFF;stroke-width:1.0;"/><line style="stroke:#00BFFF;stroke-width:1.0;stroke-dasharray:2.0,2.0;" x1="434.5" x2="744.5" y1="496.8672" y2="496.8672"/><text fill="#000000" font-family="sans-serif" font-size="13" lengthAdjust="spacing" textLength="145" x="446.5" y="491.8013">Connection successful</text><line style="stroke:#00BFFF;stroke-width:1.0;" x1="429.5" x2="471.5" y1="526" y2="526"/><line style="stroke:#00BFFF;stroke-width:1.0;" x1="471.5" x2="471.5" y1="526" y2="539"/><line style="stroke:#00BFFF;stroke-width:1.0;" x1="430.5" x2="471.5" y1="539" y2="539"/><polygon fill="#00BFFF" points="440.5,535,430.5,539,440.5,543,436.5,539" style="stroke:#00BFFF;stroke-width:1.0;"/><text fill="#000000" font-family="sans-serif" font-size="13" lengthAdjust="spacing" textLength="88" x="436.5" y="520.9341">Read CSV file</text><line style="stroke:#00BFFF;stroke-width:1.0;" x1="429.5" x2="471.5" y1="568.1328" y2="568.1328"/><line style="stroke:#00BFFF;stroke-width:1.0;" x1="471.5" x2="471.5" y1="568.1328" y2="581.1328"/><line style="stroke:#00BFFF;stroke-width:1.0;" x1="430.5" x2="471.5" y1="581.1328" y2="581.1328"/><polygon fill="#00BFFF" points="440.5,577.1328,430.5,581.1328,440.5,585.1328,436.5,581.1328" style="stroke:#00BFFF;stroke-width:1.0;"/><text fill="#000000" font-family="sans-serif" font-size="13" lengthAdjust="spacing" textLength="66" x="436.5" y="563.0669">Parse CSV</text><polygon fill="#00BFFF" points="728.5,606.2656,738.5,610.2656,728.5,614.2656,732.5,610.2656" style="stroke:#00BFFF;stroke-width:1.0;"/><line style="stroke:#00BFFF;stroke-width:1.0;" x1="434.5" x2="734.5" y1="610.2656" y2="610.2656"/><text fill="#000000" font-family="sans-serif" font-size="13" lengthAdjust="spacing" textLength="292" x="441.5" y="605.1997">Process and insert batches into the database</text><line style="stroke:#00BFFF;stroke-width:1.0;stroke-dasharray:2.0,2.0;" x1="434.5" x2="476.5" y1="639.3984" y2="639.3984"/><line style="stroke:#00BFFF;stroke-width:1.0;stroke-dasharray:2.0,2.0;" x1="476.5" x2="476.5" y1="639.3984" y2="652.3984"/><line style="stroke:#00BFFF;stroke-width:1.0;stroke-dasharray:2.0,2.0;" x1="435.5" x2="476.5" y1="652.3984" y2="652.3984"/><polygon fill="#00BFFF" points="445.5,648.3984,435.5,652.3984,445.5,656.3984,441.5,652.3984" style="stroke:#00BFFF;stroke-width:1.0;"/><text fill="#000000" font-family="sans-serif" font-size="13" lengthAdjust="spacing" textLength="227" x="441.5" y="634.3325">Inserting batch into the database...</text><line style="stroke:#00BFFF;stroke-width:1.0;stroke-dasharray:2.0,2.0;" x1="434.5" x2="476.5" y1="681.5313" y2="681.5313"/><line style="stroke:#00BFFF;stroke-width:1.0;stroke-dasharray:2.0,2.0;" x1="476.5" x2="476.5" y1="681.5313" y2="694.5313"/><line style="stroke:#00BFFF;stroke-width:1.0;stroke-dasharray:2.0,2.0;" x1="435.5" x2="476.5" y1="694.5313" y2="694.5313"/><polygon fill="#00BFFF" points="445.5,690.5313,435.5,694.5313,445.5,698.5313,441.5,694.5313" style="stroke:#00BFFF;stroke-width:1.0;"/><text fill="#000000" font-family="sans-serif" font-size="13" lengthAdjust="spacing" textLength="227" x="441.5" y="676.4653">Inserting batch into the database...</text><line style="stroke:#00BFFF;stroke-width:1.0;stroke-dasharray:2.0,2.0;" x1="434.5" x2="476.5" y1="723.6641" y2="723.6641"/><line style="stroke:#00BFFF;stroke-width:1.0;stroke-dasharray:2.0,2.0;" x1="476.5" x2="476.5" y1="723.6641" y2="736.6641"/><line style="stroke:#00BFFF;stroke-width:1.0;stroke-dasharray:2.0,2.0;" x1="435.5" x2="476.5" y1="736.6641" y2="736.6641"/><polygon fill="#00BFFF" points="445.5,732.6641,435.5,736.6641,445.5,740.6641,441.5,736.6641" style="stroke:#00BFFF;stroke-width:1.0;"/><text fill="#000000" font-family="sans-serif" font-size="13" lengthAdjust="spacing" textLength="227" x="441.5" y="718.5981">Inserting batch into the database...</text><polygon fill="#00BFFF" points="445.5,761.7969,435.5,765.7969,445.5,769.7969,441.5,765.7969" style="stroke:#00BFFF;stroke-width:1.0;"/><line style="stroke:#00BFFF;stroke-width:1.0;stroke-dasharray:2.0,2.0;" x1="439.5" x2="744.5" y1="765.7969" y2="765.7969"/><text fill="#000000" font-family="sans-serif" font-size="13" lengthAdjust="spacing" textLength="274" x="451.5" y="760.731">Data entered in batches into the database</text><line style="stroke:#00BFFF;stroke-width:1.0;stroke-dasharray:2.0,2.0;" x1="434.5" x2="476.5" y1="799.9297" y2="799.9297"/><line style="stroke:#00BFFF;stroke-width:1.0;stroke-dasharray:2.0,2.0;" x1="476.5" x2="476.5" y1="799.9297" y2="812.9297"/><line style="stroke:#00BFFF;stroke-width:1.0;stroke-dasharray:2.0,2.0;" x1="429.5" x2="476.5" y1="812.9297" y2="812.9297"/><polygon fill="#00BFFF" points="439.5,808.9297,429.5,812.9297,439.5,816.9297,435.5,812.9297" style="stroke:#00BFFF;stroke-width:1.0;"/><text fill="#000000" font-family="sans-serif" font-size="13" lengthAdjust="spacing" textLength="95" x="441.5" y="794.8638">End of process</text><polygon fill="#00BFFF" points="228.5,833.0625,218.5,837.0625,228.5,841.0625,224.5,837.0625" style="stroke:#00BFFF;stroke-width:1.0;"/><line style="stroke:#00BFFF;stroke-width:1.0;stroke-dasharray:2.0,2.0;" x1="222.5" x2="418.5" y1="837.0625" y2="837.0625"/><text fill="#000000" font-family="sans-serif" font-size="13" lengthAdjust="spacing" textLength="114" x="234.5" y="831.9966">End of execution!</text><polygon fill="#00BFFF" points="37.5,862.1953,27.5,866.1953,37.5,870.1953,33.5,866.1953" style="stroke:#00BFFF;stroke-width:1.0;"/><line style="stroke:#00BFFF;stroke-width:1.0;stroke-dasharray:2.0,2.0;" x1="31.5" x2="201.5" y1="866.1953" y2="866.1953"/><text fill="#000000" font-family="sans-serif" font-size="13" lengthAdjust="spacing" textLength="152" x="43.5" y="861.1294">Show console message</text><text fill="#888888" font-family="sans-serif" font-size="10" lengthAdjust="spacing" textLength="3" x="415.25" y="973.2666">&#160;</text><text fill="#888888" font-family="sans-serif" font-size="10" font-weight="bold" lengthAdjust="spacing" textLength="28" x="386.75" y="984.9072">Page</text><text fill="#888888" font-family="sans-serif" font-size="10" lengthAdjust="spacing" textLength="6" x="417.75" y="984.9072">1</text><text fill="#888888" font-family="sans-serif" font-size="10" font-weight="bold" lengthAdjust="spacing" textLength="11" x="426.75" y="984.9072">of</text><text fill="#888888" font-family="sans-serif" font-size="10" lengthAdjust="spacing" textLength="6" x="440.75" y="984.9072">1</text><text fill="#888888" font-family="sans-serif" font-size="10" font-weight="bold" lengthAdjust="spacing" textLength="39" x="347.25" y="996.5479">Author</text><text fill="#888888" font-family="sans-serif" font-size="10" lengthAdjust="spacing" textLength="100" x="386.25" y="996.5479">: Hemicharly Thiago</text><text fill="#888888" font-family="sans-serif" font-size="10" lengthAdjust="spacing" textLength="164" x="308.25" y="1008.1885">Rendered with PlantUML Version:</text><text fill="#888888" font-family="sans-serif" font-size="10" font-weight="bold" lengthAdjust="spacing" textLength="50" x="475.25" y="1008.1885">1.2024.4</text><!--SRC=[nLH1Rzem5BxxLxmnLLhJjT9EqpXC2eHsI40HR3rnSPCNi0XsQZkbtRJ_lkSa924DhNeQXs3xVVxUzpq_smgR8FI2iN-pyAVzbLp9-U9sE5eknxCRk1vFHd0xWs0qzMU12_OOCriXKwxv3Wm-P2X3X3yCwEThhVP3bIWD0MAwt3uFaWoBK6YL7YWTeUu6J4IC4o5nmCFjMgjCHWNke_yj60RNB0VDkROY52cNzZMk9gn55wXeZReBUQsadV4TmdYNyj1sXPVYDyANhrsXWds_4HPPmt0hEt_8U1sjzpKCb7OxG8E4s8u3JK7LOcx2voa-iR-CSRSCcK7DqbeozCOomgSUS0Fvw3WOSCldMeLeZD8vg9gz1DvpWrCkETKrXmQ3SiQOImkNtuiK5nTzM5hQ3Mb1vhI9Hswnb91_7RnYwCDGemEqygpafxsm6-e_QuLSc_EQgivUZU3o8A7V9e8mvuzOX1qCjQBA_f6YQlMWfyNUa5NNhngrd2umHfrVfXRBszuQwjh-z87rFHONcOJxBDcE9PsVFPYB1JqKafhhCznp6rBrgVlEJ_ePAYanj60LHAMeTpafzmibmMIXMuspfDl4aOIc3-GH39TtkVIJABh91XtiX1NNjsK4k8n0v5KfQe26fkJGRh33PUUX7oSlIamzNDRq1TlLrTL_tVrgfm5AI-tbQl9AFTuwisFU4PLOnTKRqTXygfpbrIutuXE6cMkR3uVU9eXxYEZrsQWzX4eQHPsy8m9IqanGF4ECnKgHBLX9pviJnFFWBAN_C_0y5RjPmetDLnp4p-n6QS_hmm_SYN33TV8CFpU2hzLABf0uNONoApHFwDNyDPt07Mf34ll4UFPOZ3-TUnvZ_m00]--></g></svg>