<?xml version="1.0" encoding="us-ascii" standalone="no"?><svg xmlns="http://www.w3.org/2000/svg" xmlns:xlink="http://www.w3.org/1999/xlink" contentStyleType="text/css" height="481px" preserveAspectRatio="none" style="width:1079px;height:481px;background:#FFFFFF;" version="1.1" viewBox="0 0 1079 481" width="1079px" zoomAndPan="magnify"><defs/><g><text fill="#000000" font-family="sans-serif" font-size="14" font-weight="bold" lengthAdjust="spacing" textLength="209" x="428.25" y="22.9951">SYSTEM DESIGN DIAGRAM</text><text fill="#000000" font-family="sans-serif" font-size="14" font-weight="bold" lengthAdjust="spacing" textLength="5" x="530.25" y="39.292">&#160;</text><text fill="#000000" font-family="sans-serif" font-size="14" font-weight="bold" lengthAdjust="spacing" textLength="5" x="530.25" y="55.5889">&#160;</text><!--cluster Node.js Application--><g id="cluster_Node.js Application"><path d="M8.5,75.8906 L164.5,75.8906 A3.75,3.75 0 0 1 167,78.3906 L174,98.1875 L207.5,98.1875 A2.5,2.5 0 0 1 210,100.6875 L210,418.8906 A2.5,2.5 0 0 1 207.5,421.3906 L8.5,421.3906 A2.5,2.5 0 0 1 6,418.8906 L6,78.3906 A2.5,2.5 0 0 1 8.5,75.8906 " fill="#F0F0F0" style="stroke:#2F4F4F;stroke-width:1.5;"/><line style="stroke:#2F4F4F;stroke-width:1.5;" x1="6" x2="174" y1="98.1875" y2="98.1875"/><text fill="#000000" font-family="sans-serif" font-size="14" font-weight="bold" lengthAdjust="spacing" textLength="155" x="10" y="90.8857">Node.js Application</text></g><!--cluster External Systems--><g id="cluster_External Systems"><path d="M736.5,75.8906 L876.5,75.8906 A3.75,3.75 0 0 1 879,78.3906 L886,98.1875 L919.5,98.1875 A2.5,2.5 0 0 1 922,100.6875 L922,170.3906 A2.5,2.5 0 0 1 919.5,172.8906 L736.5,172.8906 A2.5,2.5 0 0 1 734,170.3906 L734,78.3906 A2.5,2.5 0 0 1 736.5,75.8906 " fill="#F0F0F0" style="stroke:#2F4F4F;stroke-width:1.5;"/><line style="stroke:#2F4F4F;stroke-width:1.5;" x1="734" x2="886" y1="98.1875" y2="98.1875"/><text fill="#000000" font-family="sans-serif" font-size="14" font-weight="bold" lengthAdjust="spacing" textLength="139" x="738" y="90.8857">External Systems</text></g><!--entity Index--><g id="elem_Index"><rect fill="#1E90FF" height="46.2969" rx="2.5" ry="2.5" style="stroke:#2F4F4F;stroke-width:0.5;" width="79" x="95.5" y="110.8906"/><rect fill="#1E90FF" height="10" style="stroke:#2F4F4F;stroke-width:0.5;" width="15" x="154.5" y="115.8906"/><rect fill="#1E90FF" height="2" style="stroke:#2F4F4F;stroke-width:0.5;" width="4" x="152.5" y="117.8906"/><rect fill="#1E90FF" height="2" style="stroke:#2F4F4F;stroke-width:0.5;" width="4" x="152.5" y="121.8906"/><text fill="#FFFFFF" font-family="sans-serif" font-size="14" lengthAdjust="spacing" textLength="39" x="110.5" y="143.8857">Index</text></g><!--entity DataProcessor--><g id="elem_DataProcessor"><rect fill="#1E90FF" height="46.2969" rx="2.5" ry="2.5" style="stroke:#2F4F4F;stroke-width:0.5;" width="143" x="48.5" y="248.8906"/><rect fill="#1E90FF" height="10" style="stroke:#2F4F4F;stroke-width:0.5;" width="15" x="171.5" y="253.8906"/><rect fill="#1E90FF" height="2" style="stroke:#2F4F4F;stroke-width:0.5;" width="4" x="169.5" y="255.8906"/><rect fill="#1E90FF" height="2" style="stroke:#2F4F4F;stroke-width:0.5;" width="4" x="169.5" y="259.8906"/><text fill="#FFFFFF" font-family="sans-serif" font-size="14" lengthAdjust="spacing" textLength="103" x="63.5" y="281.8857">DataProcessor</text></g><!--entity DatabaseManager--><g id="elem_DatabaseManager"><rect fill="#1E90FF" height="46.2969" rx="2.5" ry="2.5" style="stroke:#2F4F4F;stroke-width:0.5;" width="171" x="22.5" y="359.3906"/><rect fill="#1E90FF" height="10" style="stroke:#2F4F4F;stroke-width:0.5;" width="15" x="173.5" y="364.3906"/><rect fill="#1E90FF" height="2" style="stroke:#2F4F4F;stroke-width:0.5;" width="4" x="171.5" y="366.3906"/><rect fill="#1E90FF" height="2" style="stroke:#2F4F4F;stroke-width:0.5;" width="4" x="171.5" y="370.3906"/><text fill="#FFFFFF" font-family="sans-serif" font-size="14" lengthAdjust="spacing" textLength="131" x="37.5" y="392.3857">DatabaseManager</text></g><!--entity DatabaseMySQL--><g id="elem_DatabaseMySQL"><rect fill="#1E90FF" height="46.2969" rx="2.5" ry="2.5" style="stroke:#2F4F4F;stroke-width:0.5;" width="156" x="750" y="110.8906"/><rect fill="#1E90FF" height="10" style="stroke:#2F4F4F;stroke-width:0.5;" width="15" x="886" y="115.8906"/><rect fill="#1E90FF" height="2" style="stroke:#2F4F4F;stroke-width:0.5;" width="4" x="884" y="117.8906"/><rect fill="#1E90FF" height="2" style="stroke:#2F4F4F;stroke-width:0.5;" width="4" x="884" y="121.8906"/><text fill="#FFFFFF" font-family="sans-serif" font-size="14" lengthAdjust="spacing" textLength="116" x="765" y="143.8857">DatabaseMySQL</text></g><g id="elem_GMN10"><path d="M225.5,83.3906 L225.5,129.8906 L174.58,133.8906 L225.5,137.8906 L225.5,184.1875 A0,0 0 0 0 225.5,184.1875 L714.5,184.1875 A0,0 0 0 0 714.5,184.1875 L714.5,93.3906 L704.5,83.3906 L225.5,83.3906 A0,0 0 0 0 225.5,83.3906 " fill="#D3D3D3" style="stroke:#2F4F4F;stroke-width:0.5;"/><path d="M704.5,83.3906 L704.5,93.3906 L714.5,93.3906 L704.5,83.3906 " fill="#D3D3D3" style="stroke:#2F4F4F;stroke-width:0.5;"/><text fill="#000000" font-family="sans-serif" font-size="13" lengthAdjust="spacing" textLength="273" x="231.5" y="100.4575">This script is the application's entry point.</text><text fill="#000000" font-family="sans-serif" font-size="13" lengthAdjust="spacing" textLength="370" x="231.5" y="115.5903">It configures the environment, creates an instance of the</text><text fill="#000000" font-family="sans-serif" font-size="13" font-weight="bold" lengthAdjust="spacing" textLength="134" x="231.5" y="130.7231">DatabaseManager</text><text fill="#000000" font-family="sans-serif" font-size="13" lengthAdjust="spacing" textLength="258" x="369.5" y="130.7231">with the database settings, instantiates</text><text fill="#000000" font-family="sans-serif" font-size="13" lengthAdjust="spacing" textLength="21" x="231.5" y="145.856">the</text><text fill="#000000" font-family="sans-serif" font-size="13" font-weight="bold" lengthAdjust="spacing" textLength="108" x="256.5" y="145.856">DataProcessor</text><text fill="#000000" font-family="sans-serif" font-size="13" lengthAdjust="spacing" textLength="75" x="368.5" y="145.856">passing the</text><text fill="#000000" font-family="sans-serif" font-size="13" font-weight="bold" lengthAdjust="spacing" textLength="134" x="447.5" y="145.856">DatabaseManager</text><text fill="#000000" font-family="sans-serif" font-size="13" lengthAdjust="spacing" textLength="114" x="585.5" y="145.856">as a dependency,</text><text fill="#000000" font-family="sans-serif" font-size="13" lengthAdjust="spacing" textLength="389" x="231.5" y="160.9888">and finally executes the DataProcessor's bulkInsert method</text><text fill="#000000" font-family="sans-serif" font-size="13" lengthAdjust="spacing" textLength="431" x="231.5" y="176.1216">to process and insert the data from the CSV file into the database.</text></g><g id="elem_GMN13"><path d="M227,244.3906 L227,267.8906 L191.6,271.8906 L227,275.8906 L227,299.7891 A0,0 0 0 0 227,299.7891 L695,299.7891 A0,0 0 0 0 695,299.7891 L695,254.3906 L685,244.3906 L227,244.3906 A0,0 0 0 0 227,244.3906 " fill="#D3D3D3" style="stroke:#2F4F4F;stroke-width:0.5;"/><path d="M685,244.3906 L685,254.3906 L695,254.3906 L685,244.3906 " fill="#D3D3D3" style="stroke:#2F4F4F;stroke-width:0.5;"/><text fill="#000000" font-family="sans-serif" font-size="13" lengthAdjust="spacing" textLength="422" x="233" y="261.4575">This class encapsulates the data processing logic of the CSV file.</text><text fill="#000000" font-family="sans-serif" font-size="13" lengthAdjust="spacing" textLength="447" x="233" y="276.5903">It reads the CSV file, parses the data, and inserts the data in batches</text><text fill="#000000" font-family="sans-serif" font-size="13" lengthAdjust="spacing" textLength="178" x="233" y="291.7231">into the database using the</text><text fill="#000000" font-family="sans-serif" font-size="13" font-weight="bold" lengthAdjust="spacing" textLength="134" x="415" y="291.7231">DatabaseManager</text><text fill="#000000" font-family="sans-serif" font-size="13" lengthAdjust="spacing" textLength="4" x="549" y="291.7231">.</text></g><g id="elem_GMN16"><path d="M229,362.3906 L229,378.3906 L193.65,382.3906 L229,386.3906 L229,402.6563 A0,0 0 0 0 229,402.6563 L753,402.6563 A0,0 0 0 0 753,402.6563 L753,372.3906 L743,362.3906 L229,362.3906 A0,0 0 0 0 229,362.3906 " fill="#D3D3D3" style="stroke:#2F4F4F;stroke-width:0.5;"/><path d="M743,362.3906 L743,372.3906 L753,372.3906 L743,362.3906 " fill="#D3D3D3" style="stroke:#2F4F4F;stroke-width:0.5;"/><text fill="#000000" font-family="sans-serif" font-size="13" lengthAdjust="spacing" textLength="503" x="235" y="379.4575">This class is responsible for managing the connection to the MySQL database</text><text fill="#000000" font-family="sans-serif" font-size="13" lengthAdjust="spacing" textLength="500" x="235" y="394.5903">and perform related operations such as batch insertion of transactional data.</text></g><g id="elem_GMN19"><path d="M941.5,121.3906 L941.5,129.8906 L906.31,133.8906 L941.5,137.8906 L941.5,146.5234 A0,0 0 0 0 941.5,146.5234 L1072.5,146.5234 A0,0 0 0 0 1072.5,146.5234 L1072.5,131.3906 L1062.5,121.3906 L941.5,121.3906 A0,0 0 0 0 941.5,121.3906 " fill="#D3D3D3" style="stroke:#2F4F4F;stroke-width:0.5;"/><path d="M1062.5,121.3906 L1062.5,131.3906 L1072.5,131.3906 L1062.5,121.3906 " fill="#D3D3D3" style="stroke:#2F4F4F;stroke-width:0.5;"/><text fill="#000000" font-family="sans-serif" font-size="13" lengthAdjust="spacing" textLength="110" x="947.5" y="138.4575">MySQL Database</text></g><!--link Index to DataProcessor--><g id="link_Index_DataProcessor"><path d="M132.56,157.0406 C129.77,182.3306 125.8879,217.4968 123.0979,242.7868 " fill="none" id="Index-to-DataProcessor" style="stroke:#181818;stroke-width:1.0;"/><polygon fill="#181818" points="122.44,248.7506,127.4028,240.2435,122.9883,243.7808,119.451,239.3663,122.44,248.7506" style="stroke:#181818;stroke-width:1.0;"/></g><!--link DataProcessor to DatabaseManager--><g id="link_DataProcessor_DatabaseManager"><path d="M117.54,295.1106 C115.47,313.8306 113.1798,334.527 111.1098,353.237 " fill="none" id="DataProcessor-to-DatabaseManager" style="stroke:#181818;stroke-width:1.0;"/><polygon fill="#181818" points="110.45,359.2006,115.4154,350.6951,110.9998,354.2309,107.4639,349.8153,110.45,359.2006" style="stroke:#181818;stroke-width:1.0;"/></g><text fill="#888888" font-family="sans-serif" font-size="10" lengthAdjust="spacing" textLength="3" x="531.25" y="436.6729">&#160;</text><text fill="#888888" font-family="sans-serif" font-size="10" font-weight="bold" lengthAdjust="spacing" textLength="28" x="502.75" y="448.3135">Page</text><text fill="#888888" font-family="sans-serif" font-size="10" lengthAdjust="spacing" textLength="6" x="533.75" y="448.3135">1</text><text fill="#888888" font-family="sans-serif" font-size="10" font-weight="bold" lengthAdjust="spacing" textLength="11" x="542.75" y="448.3135">of</text><text fill="#888888" font-family="sans-serif" font-size="10" lengthAdjust="spacing" textLength="6" x="556.75" y="448.3135">1</text><text fill="#888888" font-family="sans-serif" font-size="10" font-weight="bold" lengthAdjust="spacing" textLength="39" x="463.25" y="459.9541">Author</text><text fill="#888888" font-family="sans-serif" font-size="10" lengthAdjust="spacing" textLength="100" x="502.25" y="459.9541">: Hemicharly Thiago</text><text fill="#888888" font-family="sans-serif" font-size="10" lengthAdjust="spacing" textLength="164" x="424.25" y="471.5947">Rendered with PlantUML Version:</text><text fill="#888888" font-family="sans-serif" font-size="10" font-weight="bold" lengthAdjust="spacing" textLength="50" x="591.25" y="471.5947">1.2024.4</text><!--SRC=[ZLHHJzim47xFhpWnJTkYWhPN7YOLMbWbYXXXJ1FbmNKkYTVa7DaEevhsttTsqf30WBKlhk_kk-_xxbodN8cG_4YkvakOpPF5wJdC5jFJo-boHIkA8hjHL0iZAgY5t8WSuNS4_3dYNxdH3QN7kjG6tfnyzDysfasAfhsV2RD9Ik7mr8Xjz6S8A7LLQq9opq3ET9gZEIeRV0NLHqyqkJRslL0Envr8k-TudwcyS3tAYynt1koTwnGFVbgOrdMff71Aqru7VxEW5EzlON__CzpCX1CNHakqLflRDZw-UyXR2ujBGOpFcSDcytk7XaG9oTOwh6pVgQ_Q9b_FGasGQRmWqDcEIaY-AfG5Ausg7V395GZYWVmx2pm5iuLQAt87eMBXU3wKgRmns1OWtIcZgUBK2KY3x8m5GQ38Ea4IVK_E2zLn_4XJ7CClvOe0b7OXiEYSejnEEWodF6O0y7ajI6yMGzJ2MYuOHCSj11E256javIItam0bA8LCiOFb5l0UPUCwGIDqzc3Tb9i5MJGEAdI5Jbic6kesAI2fDc6d0pAZg_3hEBdcDloOs48zqdaGCP-mWqz6z8yD2QEI9IjbnwMeRLEA7UFGiMFZVIXrhcJdUq-Wdn-FABMZq8GTD7O0DXbe6hHG16lXPD4DuuaYQ5uQmojwHvl-I34VUDtuNy6gDLkPyJEiVEgk6wyaeVGx2nsbiFqziNxWDHekhXZDkvU2vekmw_mC6bduJGaAE-qUqDje15aHyFd1UT3_qTA-Fz-v9RCB34gZADDyCB2YEBvWwRoidzWxdVc3lvmsl75itY5ymKh9GXXULtP6v7f5btwX3Si8R-YYvAVoRNa6rsWiKpraeBTtxVdzXpYEehy0]--></g></svg>